<svg width="100" height="20" viewBox="0 0 100 20" fill="none" xmlns="http://www.w3.org/2000/svg">
<path fill-rule="evenodd" clip-rule="evenodd" d="M71.804 1.34553C71.7477 1.17597 71.6677 1.01478 71.563 0.865231C70.7851 -0.245685 68.9361 -0.29311 67.4331 0.759306C65.9301 1.81172 65.3423 3.56545 66.1201 4.67637C66.3149 4.95451 66.5768 5.16599 66.8836 5.31023C66.6737 5.68088 66.488 6.07096 66.3263 6.48046C65.893 7.57825 65.6763 8.75308 65.6763 10.0049C65.6763 11.2568 65.9219 12.4364 66.413 13.5439C66.9137 14.6417 67.5782 15.5998 68.4063 16.4183C69.2441 17.2369 70.2119 17.8869 71.3097 18.3684C72.4075 18.8402 73.5534 19.0761 74.7475 19.0761C75.2868 19.0761 75.826 19.0424 76.3653 18.975C76.9046 18.9076 77.4486 18.7824 77.9975 18.5995C78.5464 18.4165 79.105 18.1613 79.6731 17.8339C80.2413 17.5065 80.8142 17.0876 81.392 16.5772C81.5557 16.4424 81.6376 16.3028 81.6376 16.1583C81.6376 16.0043 81.5654 15.8309 81.4209 15.6383L79.6442 13.1828C79.5479 13.0479 79.4179 12.9805 79.2542 12.9805C79.129 12.9805 79.0038 13.0239 78.8787 13.1105C78.6668 13.2742 78.455 13.4476 78.2431 13.6305C78.0312 13.8135 77.7712 13.9868 77.4631 14.1505C77.1646 14.3046 76.7986 14.4346 76.3653 14.5405C75.932 14.6465 75.3831 14.6994 74.7186 14.6994C74.2564 14.6994 73.8134 14.6272 73.3897 14.4828C72.966 14.3383 72.5808 14.1361 72.2341 13.8761C71.8875 13.6065 71.589 13.2839 71.3386 12.9083C71.0882 12.5327 70.8956 12.109 70.7608 11.6372H80.7565C81.132 11.6372 81.4498 11.6179 81.7098 11.5794C81.9698 11.5313 82.1817 11.4494 82.3454 11.3338C82.5187 11.2087 82.6391 11.0305 82.7065 10.7994C82.7835 10.5683 82.822 10.2649 82.822 9.88939C82.822 8.82049 82.692 7.85752 82.432 7.00047C82.2537 6.39011 82.0315 5.82858 81.7652 5.3159C82.0773 5.17156 82.3436 4.95818 82.5409 4.67637C83.3188 3.56545 82.7309 1.81172 81.2279 0.759306C79.7249 -0.29311 77.8759 -0.245685 77.098 0.865231C77.0045 0.998796 76.9307 1.14165 76.8759 1.29146C76.7016 1.23799 76.5266 1.19098 76.3509 1.15041C75.7346 1.00597 75.152 0.933744 74.6031 0.933744C73.6069 0.933744 72.6739 1.07101 71.804 1.34553ZM73.3319 5.3249C73.6786 5.19008 74.0494 5.12267 74.4442 5.12267C75.2434 5.12267 75.9512 5.34416 76.5675 5.78712C77.1838 6.23009 77.6749 6.86084 78.0409 7.67937H71.0352C71.199 7.32307 71.3915 6.99084 71.613 6.68269C71.8345 6.37454 72.0897 6.10491 72.3786 5.87379C72.6675 5.64268 72.9853 5.45971 73.3319 5.3249ZM50.0168 16.1872C49.9494 16.1006 49.882 16.0091 49.8146 15.9128C49.7568 15.8069 49.7183 15.7009 49.699 15.595C49.6797 15.4891 49.6894 15.3832 49.7279 15.2772C49.7664 15.1617 49.8483 15.0413 49.9735 14.9161L51.9235 13.0094C52.039 12.8939 52.1642 12.8361 52.299 12.8361C52.4531 12.8361 52.6313 12.9228 52.8335 13.0961C53.0646 13.2983 53.3102 13.4957 53.5702 13.6883C53.8302 13.8809 54.1046 14.0494 54.3935 14.1939C54.6824 14.3383 54.9809 14.4539 55.2891 14.5406C55.5972 14.6272 55.9102 14.6706 56.228 14.6706C56.5939 14.6706 56.8972 14.6417 57.138 14.5839C57.3787 14.5165 57.5713 14.4298 57.7158 14.3239C57.8602 14.2083 57.9613 14.0783 58.0191 13.9339C58.0769 13.7798 58.1058 13.6161 58.1058 13.4428C58.1058 13.2405 58.0672 13.072 57.9902 12.9372C57.9228 12.7928 57.788 12.6628 57.5858 12.5472C57.3835 12.422 57.1043 12.2968 56.748 12.1716C56.4013 12.0465 55.9439 11.902 55.3757 11.7383C54.4898 11.4783 53.7242 11.1702 53.079 10.8139C52.4339 10.4576 51.8994 10.0387 51.4757 9.55718C51.0616 9.07569 50.7535 8.5268 50.5512 7.91049C50.349 7.28456 50.2479 6.57678 50.2479 5.78714C50.2479 5.07454 50.3923 4.4149 50.6812 3.80823C50.9798 3.20156 51.4083 2.68155 51.9668 2.24822C52.535 1.80525 53.2283 1.45858 54.0468 1.20821C54.875 0.957833 55.8139 0.832647 56.8635 0.832647C57.6435 0.832647 58.3224 0.9145 58.9002 1.0782C59.4876 1.24191 60.0028 1.44895 60.4458 1.69932C60.8887 1.94969 61.2739 2.22414 61.6013 2.52266C61.9384 2.81155 62.2465 3.086 62.5258 3.346C62.7184 3.51934 62.8195 3.68786 62.8291 3.85157C62.8484 4.01527 62.7425 4.19824 62.5114 4.40046L60.388 6.24937C60.2147 6.39381 60.0654 6.46604 59.9402 6.46604C59.815 6.46604 59.661 6.389 59.478 6.23492C59.3143 6.10011 59.1458 5.96529 58.9724 5.83047C58.8087 5.69566 58.6306 5.5801 58.438 5.4838C58.2454 5.37788 58.0287 5.29602 57.788 5.23825C57.5569 5.17084 57.292 5.13713 56.9935 5.13713C56.4446 5.13713 56.0354 5.2238 55.7657 5.39714C55.5057 5.57047 55.3757 5.76788 55.3757 5.98936C55.3757 6.21085 55.4335 6.389 55.5491 6.52381C55.6742 6.649 55.8765 6.76937 56.1557 6.88493C56.4446 6.99086 56.8202 7.11123 57.2824 7.24604C57.7446 7.37123 58.3128 7.54457 58.9869 7.76605C59.9113 8.06457 60.6625 8.4305 61.2402 8.86384C61.818 9.29717 62.2658 9.76422 62.5836 10.265C62.9014 10.7657 63.118 11.2857 63.2336 11.825C63.3491 12.3642 63.4069 12.8987 63.4069 13.4283C63.4069 14.3432 63.2143 15.1569 62.8291 15.8695C62.4536 16.5724 61.948 17.1695 61.3125 17.6606C60.6865 18.1421 59.9691 18.5128 59.1602 18.7728C58.3513 19.0232 57.5135 19.1484 56.6469 19.1484C56.0594 19.1484 55.472 19.105 54.8846 19.0184C54.2972 18.9317 53.7194 18.7776 53.1513 18.5562C52.5831 18.325 52.0342 18.0217 51.5046 17.6461C50.9749 17.261 50.479 16.7747 50.0168 16.1872ZM85.8009 18.1662V1.72822C85.8009 1.30451 86.008 1.09265 86.4221 1.09265H88.791C89.0028 1.09265 89.1906 1.12636 89.3543 1.19377C89.5276 1.26117 89.6865 1.46821 89.831 1.81488L90.4377 3.36045C90.7265 3.04267 91.0058 2.73934 91.2755 2.45045C91.5547 2.15193 91.8532 1.89192 92.171 1.67044C92.4984 1.43932 92.8644 1.25636 93.2688 1.12154C93.6829 0.986728 94.1692 0.91932 94.7277 0.91932C95.3055 0.91932 95.864 1.01562 96.4033 1.20821C96.9425 1.39118 97.4288 1.60785 97.8622 1.85822C98.3051 2.10859 98.6807 2.35415 98.9889 2.59489C99.3066 2.83563 99.5233 3.00897 99.6389 3.1149C99.8796 3.32675 100 3.51935 100 3.69268C100 3.85639 99.9326 4.03453 99.7978 4.22713L97.9922 6.78382C97.867 6.96679 97.7225 7.05827 97.5588 7.05827C97.4144 7.05827 97.2651 6.99086 97.1111 6.85604C96.9859 6.75012 96.8318 6.62012 96.6488 6.46604C96.4755 6.31197 96.2685 6.16752 96.0277 6.0327C95.7966 5.88826 95.5318 5.76789 95.2333 5.67159C94.9347 5.57529 94.6025 5.52714 94.2366 5.52714C93.8129 5.52714 93.4132 5.59455 93.0377 5.72937C92.6621 5.85455 92.3299 6.04715 92.041 6.30715C91.7617 6.56715 91.5403 6.89456 91.3766 7.28938C91.2129 7.67457 91.131 8.12235 91.131 8.63273V18.1662C91.131 18.5802 90.9192 18.7873 90.4954 18.7873H86.4221C86.008 18.7873 85.8009 18.5802 85.8009 18.1662ZM41.1383 1.74266V11.0739C41.1383 11.6902 41.0227 12.1957 40.7916 12.5905C40.5701 12.9854 40.3005 13.2983 39.9827 13.5294C39.6649 13.7606 39.3327 13.9194 38.986 14.0061C38.649 14.0928 38.3649 14.1361 38.1338 14.1361C37.6427 14.1361 37.1997 14.0543 36.8049 13.8906C36.4197 13.7268 36.0875 13.5054 35.8082 13.2261C35.5386 12.9468 35.3267 12.6242 35.1726 12.2583C35.0282 11.8924 34.956 11.5072 34.956 11.1027V1.72821C34.956 1.3045 34.7441 1.09265 34.3204 1.09265H30.3915C29.9678 1.09265 29.7559 1.3045 29.7559 1.72821V11.4783C29.7559 12.5183 29.8618 13.4283 30.0737 14.2083C30.2952 14.9883 30.5793 15.6624 30.9259 16.2306C31.2822 16.7891 31.6867 17.2513 32.1393 17.6173C32.6015 17.9832 33.0734 18.2769 33.5548 18.4984C34.046 18.7102 34.5274 18.8595 34.9993 18.9462C35.4808 19.0328 35.9141 19.0762 36.2993 19.0762C36.8001 19.0762 37.3008 19.028 37.8015 18.9317C38.3023 18.845 38.7886 18.7006 39.2605 18.4984C39.7419 18.2962 40.1993 18.0265 40.6327 17.6895C41.0757 17.3524 41.4801 16.9384 41.846 16.4472L42.2505 17.9928C42.3083 18.2047 42.4334 18.3925 42.626 18.5562C42.8186 18.7102 43.0257 18.7873 43.2472 18.7873H45.8183C46.2516 18.7873 46.4683 18.5706 46.4683 18.1373V1.74266C46.4683 1.30932 46.2516 1.09265 45.8183 1.09265H41.8027C41.5908 1.09265 41.4223 1.14561 41.2971 1.25154C41.1816 1.35747 41.1286 1.52117 41.1383 1.74266ZM10.5879 18.1517V8.86382C10.5879 8.41122 10.5205 7.99714 10.3857 7.62158C10.2605 7.24603 10.0775 6.92343 9.83677 6.6538C9.60565 6.38416 9.32639 6.17713 8.99898 6.03268C8.67157 5.88823 8.31527 5.81601 7.93008 5.81601C7.54489 5.81601 7.18859 5.88823 6.86118 6.03268C6.5434 6.17713 6.26895 6.38416 6.03784 6.6538C5.80672 6.9138 5.62857 7.23158 5.50339 7.60714C5.3782 7.9827 5.31561 8.40159 5.31561 8.86382V18.1372C5.32524 18.3587 5.26746 18.5224 5.14227 18.6284C5.02672 18.7343 4.86301 18.7872 4.65116 18.7872H0.650006C0.216669 18.7872 0 18.5706 0 18.1372V1.71375C0 1.28041 0.216669 1.06374 0.650006 1.06374H3.17781C3.39929 1.06374 3.60633 1.14559 3.79893 1.3093C3.99152 1.46337 4.11671 1.64634 4.17449 1.85819L4.56449 3.41821C5.20968 2.50339 5.94636 1.85338 6.77451 1.46819C7.6123 1.083 8.52712 0.890406 9.51898 0.890406C9.9138 0.890406 10.3279 0.93374 10.7612 1.02041C11.2042 1.09745 11.6375 1.23708 12.0612 1.4393C12.4946 1.64152 12.9086 1.91597 13.3035 2.26264C13.7079 2.60931 14.0642 3.04265 14.3724 3.56266C15.0753 2.69598 15.8842 2.03634 16.7991 1.58375C17.7235 1.12152 18.6961 0.890406 19.7169 0.890406C20.8147 0.890406 21.768 1.10226 22.5769 1.52597C23.3858 1.94968 24.0551 2.52746 24.5847 3.25932C25.124 3.99118 25.5236 4.84341 25.7836 5.81601C26.0532 6.78861 26.188 7.82381 26.188 8.9216V18.1517C26.188 18.5754 25.9714 18.7872 25.538 18.7872H21.6236C21.1998 18.7872 20.988 18.5754 20.988 18.1517V8.87826C20.988 8.42567 20.9302 8.01159 20.8147 7.63603C20.7087 7.26047 20.545 6.94269 20.3235 6.68269C20.1117 6.41305 19.8469 6.20601 19.5291 6.06157C19.2209 5.90749 18.8694 5.83046 18.4746 5.83046C18.0798 5.83046 17.7139 5.90268 17.3768 6.04712C17.0494 6.19157 16.7654 6.39861 16.5246 6.66824C16.2935 6.93787 16.1105 7.26047 15.9757 7.63603C15.8409 8.00196 15.7735 8.41604 15.7735 8.87826L15.7879 18.1517C15.7879 18.5754 15.5761 18.7872 15.1524 18.7872H11.2234C10.7997 18.7872 10.5879 18.5754 10.5879 18.1517Z" fill="#756F6A"/>
</svg>
